<?xml version="1.0" encoding="utf-8"?>
<!-- Generator: Adobe Illustrator 25.2.3, SVG Export Plug-In . SVG Version: 6.00 Build 0)  -->
<svg version="1.1" id="Capa_1" xmlns="http://www.w3.org/2000/svg" xmlns:xlink="http://www.w3.org/1999/xlink" x="0px" y="0px"
	 viewBox="0 0 800 800" style="enable-background:new 0 0 800 800;" xml:space="preserve">
<style type="text/css">
	.st0{fill:none;}
	.st1{fill-rule:evenodd;clip-rule:evenodd;fill:#76766D;}
</style>
<rect class="st0" width="800" height="800"/>
<path class="st1" d="M274.4,74.7c33.7-15.1,63,19,52.4,48.7C291,224,313,338.2,387.3,412.5C462,487.2,577,509.2,678,472.7
	c29.4-10.6,62.6,18.3,48.1,51.3c-0.4,1-0.9,1.9-1.3,2.9c-25.8,57.3-67.2,111.2-120.7,147.3c-57,38.5-124.2,59.1-193,59.1l0,0
	c-80-0.1-157.5-28-219.2-78.9c-61.7-50.9-103.8-121.7-119-200.3S70.4,294.2,108.6,224c36.3-66.6,97.2-118.4,164.8-148.8L274.4,74.7z
	"/>
</svg>
